<?xml version="1.0" encoding="utf-8"?>
<!-- Generator: Adobe Illustrator 18.0.0, SVG Export Plug-In . SVG Version: 6.00 Build 0)  -->
<!DOCTYPE svg PUBLIC "-//W3C//DTD SVG 1.1//EN" "http://www.w3.org/Graphics/SVG/1.1/DTD/svg11.dtd">
<svg version="1.1" id="Layer_1" xmlns="http://www.w3.org/2000/svg" xmlns:xlink="http://www.w3.org/1999/xlink" x="0px" y="0px"
	 viewBox="0 0 64 64" enable-background="new 0 0 64 64" xml:space="preserve">
<g>
	<path d="M40,18c0-4.4-3.6-8-8-8s-8,3.6-8,8s3.6,8,8,8S40,22.4,40,18z M28,18c0-2.2,1.8-4,4-4s4,1.8,4,4s-1.8,4-4,4S28,20.2,28,18z"
		/>
	<path d="M30.5,49.3l1.5,1.9l1.5-1.9c0.4-0.5,1-1.2,1.7-2C40.4,41.5,51,29.4,51,19.2C51,8.6,42.5,0,32,0S13,8.6,13,19.2
		c0,10.4,10.8,22.5,15.9,28.4C29.6,48.2,30.1,48.8,30.5,49.3z M32,4c8.3,0,15,6.8,15,15.2c0,8.8-10.3,20.5-14.7,25.5
		c-0.1,0.1-0.2,0.2-0.3,0.3c0,0,0-0.1-0.1-0.1C27.5,39.8,17,28,17,19.2C17,10.8,23.7,4,32,4z"/>
	<polygon points="55.5,35 48,35 48,39 52.5,39 58.4,60 5.6,60 11.5,39 16,39 16,35 8.5,35 0.4,64 63.6,64 	"/>
</g>
</svg>
